<svg xmlns="http://www.w3.org/2000/svg" width="400" height="215">
  <rect width="100%" height="100%" fill="#fff"/><rect x="20" y="20" width="360" height="20" rx="6" fill="#eee" />
<rect x="20" y="20" width="0" height="20" rx="6" fill="#083fa1" />
<text x="25" y="35" font-family="sans-serif" font-size="12" fill="#fff"

    >
      Markdown 0.00 hrs (0.00%)
    </text>
<rect x="20" y="55" width="360" height="20" rx="6" fill="#eee" />
<rect x="20" y="55" width="0" height="20" rx="6" fill="#cb171e" />
<text x="25" y="70" font-family="sans-serif" font-size="12" fill="#fff"

    >
      YAML 0.00 hrs (0.00%)
    </text>
<rect x="20" y="90" width="360" height="20" rx="6" fill="#eee" />
<rect x="20" y="90" width="0" height="20" rx="6" fill="#3178c6" />
<text x="25" y="105" font-family="sans-serif" font-size="12" fill="#fff"

    >
      TypeScript 0.00 hrs (0.00%)
    </text>
<rect x="20" y="125" width="360" height="20" rx="6" fill="#eee" />
<rect x="20" y="125" width="0" height="20" rx="6" fill="#f7df1e" />
<text x="25" y="140" font-family="sans-serif" font-size="12" fill="#333"

    >
      JavaScript 0.00 hrs (0.00%)
    </text>
<rect x="20" y="160" width="360" height="20" rx="6" fill="#eee" />
<rect x="20" y="160" width="0" height="20" rx="6" fill="#888" />
<text x="25" y="175" font-family="sans-serif" font-size="12" fill="#fff"

    >
      Image (svg) 0.00 hrs (0.00%)
    </text>
</svg>